# xmcd
#
# Track frame offsets:
#	150
#	9459
#	18778
#	33023
#	47511
#	54126
#	67530
#	83929
#	95107
#	107618
#	122462
#
# Disc length: 1890 seconds
#
# Revision: 0
# Processed by: cddbd v1.5.2PL0 Copyright (c) Steve Scherf et al.
# Submitted via: dBpowerAMP V4.0
#
DISCID=6e07600b
DTITLE=Sibanda - Sibanda Files CD2
DYEAR=2009
DGENRE=Comedy
TTITLE0=Lyon Rouge
TTITLE1=Ghost Stories
TTITLE2=Spare Parts
TTITLE3=The Cock Up
TTITLE4=Spelling Class
TTITLE5=For Emir, King and Country
TTITLE6=Post Elections
TTITLE7=The Jump Up
TTITLE8=The Beach Trip
TTITLE9=Dim Sum Wholesalers
TTITLE10=With Respect To Rex
EXTD=
EXTT0=
EXTT1=
EXTT2=
EXTT3=
EXTT4=
EXTT5=
EXTT6=
EXTT7=
EXTT8=
EXTT9=
EXTT10=
PLAYORDER=
